<svg xmlns="http://www.w3.org/2000/svg" viewBox="0 0 24 24"><path d="M10.86 18.93a1.9 1.9 0 1 1-3.8 0 1.9 1.9 0 1 1 3.8 0Zm8.73-1.9a1.9 1.9 0 1 0 0 3.8 1.9 1.9 0 1 0 0-3.8Zm4.2-11.24c-.19-.24-.48-.38-.79-.38h-2.28c-.55 0-1 .45-1 1s.45 1 1 1h1.01l-1.42 5.96H7.86L5.39 2.77a.994.994 0 0 0-.8-.76h-.17L1.01 2c-.55 0-1 .45-1 1s.45 1 1 1h2.62L6.1 14.61c.11.45.51.77.97.77H21.1c.46 0 .87-.32.97-.77l1.9-7.97.02-.11a.996.996 0 0 0-.21-.74ZM10 7.41h2.13v2.03c0 .55.45 1 1 1s1-.45 1-1V7.41h2.04c.55 0 1-.45 1-1s-.45-1-1-1h-2.04V3.27c-.06-.5-.48-.9-1-.9s-.94.39-1 .9v2.14H9.99c-.5.06-.9.48-.9 1s.39.94.9 1Z"/></svg>