<svg width="22" height="17" fill="none" xmlns="http://www.w3.org/2000/svg"><path d="M11 .4a11.75 11.75 0 0 1 10.69 6.87l.173.401.013.033a2 2 0 0 1 .055 1.222l-.055.17-.013.033a11.751 11.751 0 0 1-10.426 7.262L11 16.4A11.752 11.752 0 0 1 .31 9.529l-.173-.4-.013-.033a2 2 0 0 1 0-1.392l.013-.033A11.752 11.752 0 0 1 11 .401Zm0 2a9.753 9.753 0 0 0-9 6 9.75 9.75 0 0 0 9 6l.362-.007A9.751 9.751 0 0 0 20 8.4a9.75 9.75 0 0 0-8.998-6Zm2 6A2 2 0 1 0 9 8.4a2 2 0 0 0 4-.001Zm2 0a4 4 0 1 1-8-.001 4 4 0 0 1 8 0Z" fill="#fff"/></svg>