<svg width="107" height="27" viewBox="0 0 107 27" fill="none" xmlns="http://www.w3.org/2000/svg">
<g clip-path="url(#clip0_65_11363)">
<path d="M13.0087 5.94498L8.62825 7.54156L6.60221 6.47044C6.39001 6.35929 6.13233 6.44013 6.02118 6.64728C5.91003 6.85443 5.99087 7.11716 6.19802 7.22831L8.16343 8.26912L8.18869 17.3787C8.18869 17.6162 8.38068 17.8082 8.61815 17.8082C8.85562 17.8082 9.04761 17.6162 9.04761 17.3787L9.02235 8.31459L13.2967 6.75843C13.519 6.67759 13.6353 6.43002 13.5544 6.20771C13.4736 5.9854 13.226 5.8692 13.0037 5.95004L13.0087 5.94498Z" fill="white"/>
<path d="M19.7338 13.4627C19.4559 13.1899 19.1426 12.9928 18.794 12.8665C19.8095 11.7196 20.3603 10.3302 20.3603 8.88518C20.3603 6.95514 19.759 5.66676 18.5868 5.04025L11.3618 1.23069C10.4069 0.730496 9.51767 0.326298 8.26971 0.457662C7.19858 0.573869 6.19314 0.962909 5.22307 1.33174C4.99065 1.42268 4.75824 1.50858 4.52583 1.59447L0.433329 3.09505C0.261545 3.15568 0.150391 3.31736 0.150391 3.49925L0.180705 21.7437C0.180705 21.9003 0.266597 22.0469 0.408067 22.1226L8.41623 26.3819C8.47686 26.4172 8.54759 26.4324 8.61833 26.4324C8.66885 26.4324 8.71938 26.4223 8.76485 26.4071C8.76485 26.4071 13.403 24.7045 14.7167 24.2245C18.7283 22.7542 20.8453 20.0158 20.8402 16.3123C20.8402 15.5039 20.5472 14.2711 19.7338 13.4728V13.4627ZM14.4236 23.4161C13.2666 23.8405 9.52272 25.2148 8.65369 25.5331L1.03963 21.481L1.00931 3.79734L4.82392 2.40286C5.06139 2.31697 5.2938 2.22603 5.53127 2.13508C6.45082 1.78141 7.40574 1.41763 8.3657 1.31153C9.3762 1.20543 10.0785 1.52373 10.9627 1.99361L18.1826 5.80823C19.0567 6.268 19.4963 7.30881 19.5013 8.89528C19.5013 10.3554 18.8344 11.755 17.6218 12.8362C17.4905 12.9575 17.445 13.1444 17.5056 13.3111C17.5713 13.4779 17.7279 13.5941 17.9098 13.584C18.3949 13.584 18.7991 13.7457 19.1325 14.0741C19.7135 14.65 19.9813 15.6353 19.9813 16.3073C19.9864 19.6671 18.117 22.057 14.4186 23.411L14.4236 23.4161Z" fill="white"/>
<path d="M35.4016 6.13672C38.4331 6.13672 39.9489 7.31394 39.9489 9.66334C39.9489 11.0124 39.3021 12.0127 38.0037 12.6696C38.8878 12.9222 39.5447 13.3668 39.9792 14.0034C40.4137 14.64 40.6309 15.4029 40.6309 16.2972C40.6309 17.5806 40.1661 18.5911 39.2365 19.3338C38.3068 20.0765 37.0892 20.4453 35.5785 20.4453H28.6465V6.13672H35.4016ZM35.0025 11.9268C36.2707 11.9268 36.9073 11.361 36.9073 10.2242C36.9073 9.08736 36.1999 8.58211 34.7852 8.58211H31.7992V11.9268H35.0075H35.0025ZM35.1793 17.9999C36.7153 17.9999 37.4833 17.3734 37.4833 16.1153C37.4833 14.7512 36.7355 14.0691 35.24 14.0691H31.7942V17.9949H35.1793V17.9999Z" fill="white"/>
<path d="M47.0223 9.80469C50.0436 9.81984 51.5493 10.8 51.5493 12.7503V18.2423C51.5493 19.2579 51.6705 19.9905 51.908 20.4452H49.023C48.9169 20.1269 48.8512 19.7884 48.8209 19.4448C47.9772 20.2987 46.8151 20.7281 45.3347 20.7281C44.2535 20.7281 43.3946 20.4553 42.758 19.9046C42.1214 19.3589 41.8081 18.596 41.8081 17.6209C41.8081 16.6457 42.1062 15.9384 42.7074 15.418C43.3238 14.8723 44.4354 14.5237 46.0522 14.3772C47.1991 14.2559 47.9266 14.1043 48.2348 13.9275C48.543 13.7456 48.6946 13.4677 48.6946 13.0938C48.6946 12.624 48.5532 12.2804 48.2753 12.053C47.9923 11.8257 47.5275 11.7145 46.8707 11.7145C46.2694 11.7145 45.8147 11.8358 45.5065 12.0834C45.1983 12.3309 45.0164 12.7301 44.9659 13.2757H42.1214C42.187 12.1389 42.6569 11.28 43.5259 10.6889C44.395 10.1028 45.557 9.80469 47.0121 9.80469H47.0223ZM44.6577 17.4996C44.6577 18.3838 45.2387 18.8233 46.4008 18.8233C47.9216 18.8082 48.6896 18.0301 48.7047 16.479V15.3776C48.4774 15.6049 47.9014 15.7717 46.9818 15.8778C46.1785 15.9738 45.5924 16.1354 45.2185 16.3678C44.8446 16.6003 44.6577 16.9792 44.6577 17.4996Z" fill="white"/>
<path d="M57.8094 9.80469C59.1988 9.80469 60.2851 10.0876 61.0682 10.6484C61.8514 11.2093 62.2859 12.0328 62.3819 13.1141H59.6737C59.6333 12.6189 59.4514 12.2602 59.1331 12.0429C58.8098 11.8206 58.3449 11.7145 57.7285 11.7145C57.193 11.7145 56.7989 11.7954 56.5362 11.957C56.2734 12.1187 56.1471 12.3562 56.1471 12.6795C56.1471 12.9221 56.233 13.1191 56.4098 13.2808C56.5816 13.4425 56.8494 13.5839 57.2031 13.7001C57.5568 13.8163 57.9458 13.9224 58.3753 13.9982C59.6687 14.2509 60.5882 14.5136 61.1187 14.7814C61.6543 15.0491 62.0433 15.3675 62.2909 15.7413C62.5385 16.1152 62.6597 16.575 62.6597 17.1257C62.6597 18.2878 62.2353 19.1821 61.3865 19.7985C60.5377 20.4199 59.3857 20.7281 57.9306 20.7281C56.4755 20.7281 55.2225 20.3997 54.3737 19.7479C53.5249 19.0911 53.0853 18.2069 53.0601 17.0853H55.7682C55.7682 17.6209 55.9753 18.0453 56.3896 18.3585C56.8039 18.6718 57.3243 18.8284 57.9508 18.8284C58.4864 18.8284 58.931 18.7122 59.2847 18.4798C59.6384 18.2474 59.8152 17.924 59.8152 17.5097C59.8152 17.2419 59.7041 17.0247 59.4868 16.8478C59.2695 16.671 58.9563 16.5194 58.5571 16.3881C58.158 16.2567 57.5365 16.1001 56.6928 15.9283C56.0259 15.7969 55.4297 15.615 54.9093 15.3877C54.3889 15.1603 53.9897 14.8622 53.7169 14.4934C53.444 14.1245 53.3076 13.6749 53.3076 13.1393C53.3076 12.4572 53.4693 11.8661 53.7977 11.3558C54.1261 10.8505 54.6263 10.4615 55.2983 10.2038C55.9753 9.9411 56.809 9.81479 57.8144 9.81479L57.8094 9.80469Z" fill="white"/>
<path d="M68.9196 9.80469C69.8948 9.80469 70.7638 10.032 71.5267 10.4868C72.2896 10.9415 72.8858 11.5983 73.3203 12.4623C73.7549 13.3263 73.9721 14.3165 73.9721 15.4382C73.9721 15.5443 73.9671 15.7211 73.9519 15.9586H66.4793C66.5046 16.7872 66.7218 17.4289 67.1311 17.8937C67.5403 18.3535 68.1618 18.5859 69.0055 18.5859C69.5259 18.5859 70.0059 18.4545 70.4404 18.1968C70.8749 17.9341 71.1528 17.6209 71.2741 17.247H73.7801C73.0475 19.5711 71.4307 20.7332 68.9298 20.7332C67.9799 20.718 67.1008 20.5109 66.2924 20.1117C65.484 19.7126 64.8373 19.0861 64.3573 18.2373C63.8773 17.3884 63.6348 16.4032 63.6348 15.2816C63.6348 14.2256 63.8773 13.2656 64.3674 12.3966C64.8524 11.5276 65.5042 10.8809 66.3126 10.4514C67.121 10.0219 67.99 9.80974 68.9298 9.80974L68.9196 9.80469ZM71.1023 14.1549C70.9709 13.3818 70.7234 12.821 70.3596 12.4724C70.0009 12.1238 69.4855 11.952 68.8186 11.952C68.1517 11.952 67.5757 12.149 67.1765 12.5431C66.7774 12.9372 66.5399 13.4728 66.4743 14.1549H71.1023Z" fill="white"/>
<path d="M78.3831 6.13672V20.4453H75.5386V6.13672H78.3831Z" fill="white"/>
<path d="M83.3445 6.13672V8.48106H80.5V6.13672H83.3445ZM83.3445 10.0827V20.4453H80.5V10.0827H83.3445Z" fill="white"/>
<path d="M91.3779 9.80469C92.7017 9.80469 93.6566 10.1382 94.2528 10.8051C94.849 11.472 95.1471 12.533 95.1471 13.9932V20.4452H92.3025V14.5742C92.3025 13.7204 92.1661 13.0837 91.8933 12.6694C91.6204 12.2551 91.1505 12.048 90.4786 12.048C89.7055 12.048 89.1447 12.2804 88.7961 12.7503C88.4475 13.2202 88.2757 13.9881 88.2757 15.0542V20.4452H85.4312V10.0826H88.1342V11.5276H88.1949C88.9022 10.3807 89.9632 9.80469 91.383 9.80469H91.3779Z" fill="white"/>
<path d="M101.947 9.80469C102.923 9.80469 103.792 10.032 104.555 10.4868C105.317 10.9415 105.914 11.5983 106.348 12.4623C106.783 13.3263 107 14.3165 107 15.4382C107 15.5443 106.995 15.7211 106.98 15.9586H99.5071C99.5324 16.7872 99.7497 17.4289 100.159 17.8937C100.568 18.3535 101.19 18.5859 102.033 18.5859C102.554 18.5859 103.034 18.4545 103.468 18.1968C103.903 17.9341 104.181 17.6209 104.302 17.247H106.808C106.075 19.5711 104.459 20.7332 101.958 20.7332C101.008 20.718 100.129 20.5109 99.3202 20.1117C98.5118 19.7126 97.8651 19.0861 97.3851 18.2373C96.9051 17.3884 96.6626 16.4032 96.6626 15.2816C96.6626 14.2256 96.9051 13.2656 97.3952 12.3966C97.8802 11.5276 98.532 10.8809 99.3404 10.4514C100.149 10.0219 101.018 9.80974 101.958 9.80974L101.947 9.80469ZM104.135 14.1549C104.004 13.3818 103.756 12.821 103.392 12.4724C103.034 12.1238 102.518 11.952 101.851 11.952C101.185 11.952 100.609 12.149 100.209 12.5431C99.8103 12.9372 99.5728 13.4728 99.5071 14.1549H104.135Z" fill="white"/>
</g>
<defs>
<clipPath id="clip0_65_11363">
<rect width="106.85" height="26" fill="white" transform="translate(0.150391 0.432617)"/>
</clipPath>
</defs>
</svg>
