<svg width="80" height="20" viewBox="0 0 80 20" fill="none" xmlns="http://www.w3.org/2000/svg">
<path d="M6.45531 19.1519C6.39234 19.1519 6.32936 19.131 6.28738 19.1102L0.451623 15.9851C0.346663 15.9226 0.262695 15.8184 0.262695 15.6726V2.42225C0.262695 2.27641 0.346663 2.13057 0.493606 2.08891L3.95727 0.81804C4.671 0.547199 5.40572 0.255525 6.18242 0.172189C7.10606 0.0680201 7.75681 0.380528 8.44955 0.734704L13.6975 3.50561C14.5582 3.96396 14.999 4.92231 14.999 6.33902C14.999 7.38071 14.6212 8.38074 13.8865 9.21409C14.1174 9.29743 14.3273 9.44327 14.5162 9.63077C15.125 10.2141 15.3349 11.1308 15.3349 11.735C15.3349 14.4434 13.8025 16.4435 10.8636 17.5268C10.0029 17.8393 9.39418 18.0685 8.78542 18.2977C8.13467 18.5477 7.48392 18.7768 6.56027 19.131C6.53928 19.131 6.4973 19.1519 6.45531 19.1519ZM0.976421 15.4643L6.47631 18.4018C7.33697 18.0893 7.94574 17.8602 8.55451 17.631C9.16327 17.4018 9.77204 17.1726 10.6327 16.8601C13.2987 15.8809 14.6422 14.1517 14.6422 11.735C14.6422 11.2558 14.4532 10.5475 14.0334 10.1308C13.8025 9.90161 13.5296 9.79744 13.1937 9.79744C13.0468 9.79744 12.9208 9.71411 12.8579 9.56827C12.7949 9.42243 12.8369 9.2766 12.9418 9.17243C13.8235 8.40157 14.2853 7.38071 14.2853 6.33902C14.2853 5.21399 13.9704 4.46397 13.3617 4.13063L8.13467 1.35972C7.50491 1.02638 7.0011 0.797206 6.28738 0.880541C5.59464 0.963877 4.90191 1.21388 4.25116 1.48472L0.976421 2.67226V15.4643ZM6.43432 12.86C6.24539 12.86 6.07746 12.6934 6.07746 12.5058V5.90151L4.671 5.17232C4.50306 5.08899 4.44009 4.85981 4.52406 4.69314C4.60802 4.52647 4.83893 4.46397 5.00687 4.5473L6.45531 5.31816L9.6041 4.17229C9.79303 4.10979 10.0029 4.19313 10.0659 4.38063C10.1289 4.56814 10.0449 4.77648 9.856 4.83898L6.79118 5.96401V12.5267C6.79118 12.7142 6.64424 12.86 6.43432 12.86Z" fill="white"/>
<path d="M76.2422 6.90176C75.1297 6.90176 74.227 7.25594 73.5133 7.94345C72.8205 8.65181 72.4637 9.65183 72.4637 10.9644C72.4637 12.3602 72.8415 13.3811 73.6182 13.9853C74.3949 14.6103 75.2976 14.9228 76.3052 14.9228C77.5437 14.9228 78.4884 14.5478 79.1811 13.8186C79.6219 13.3603 79.8738 12.9019 79.9158 12.4436H77.8796C77.7536 12.6727 77.6277 12.8394 77.4598 12.9644C77.1869 13.1936 76.809 13.3186 76.3472 13.3186C75.9274 13.3186 75.5495 13.2144 75.2556 13.0269C74.7518 12.7144 74.4999 12.1936 74.4579 11.4227H79.9998C79.9998 10.7769 79.9788 10.2768 79.9368 9.92267C79.8528 9.33932 79.6429 8.81848 79.328 8.36013C78.9712 7.86012 78.5513 7.48511 78.0056 7.2351C77.5017 7.02676 76.893 6.90176 76.2422 6.90176ZM76.2422 8.5268C76.7041 8.5268 77.1029 8.67264 77.4178 8.94348C77.7327 9.21432 77.9216 9.61016 77.9426 10.131H74.5209C74.5839 9.631 74.7728 9.25599 75.0457 8.96431C75.3186 8.67264 75.7174 8.5268 76.2422 8.5268ZM68.5382 6.92259C67.9084 6.92259 67.4046 7.06843 66.9848 7.38094C66.7539 7.54761 66.523 7.83928 66.2711 8.21429V7.1101H64.3398V14.652H66.334V10.5685C66.334 10.1102 66.397 9.71433 66.523 9.42266C66.7749 8.86014 67.2367 8.56847 67.9084 8.56847C68.4542 8.56847 68.8321 8.75597 69.021 9.15182C69.126 9.36016 69.1889 9.67266 69.1889 10.0685V14.6728H71.2252V9.5685C71.2252 8.61014 70.9733 7.94345 70.4695 7.52678C69.9656 7.13093 69.3149 6.92259 68.5382 6.92259ZM60.3723 14.6728H62.3876V7.1101H60.3723V14.6728ZM62.3876 4.38086H60.3723V6.19341H62.3876V4.38086ZM58.3991 4.44336H56.4049V14.6728H58.3991V4.44336ZM51.5767 6.90176C50.4641 6.90176 49.5615 7.25594 48.8478 7.94345C48.155 8.65181 47.7982 9.65183 47.7982 10.9644C47.7982 12.3602 48.176 13.3811 48.9527 13.9853C49.7294 14.5895 50.6321 14.9228 51.6397 14.9228C52.8782 14.9228 53.8229 14.5478 54.5156 13.8186C54.9564 13.3603 55.2083 12.9019 55.2503 12.4436H53.2141C53.0881 12.6727 52.9622 12.8394 52.7942 12.9644C52.5214 13.1936 52.1435 13.3186 51.6817 13.3186C51.2618 13.3186 50.884 13.2144 50.5901 13.0269C50.0863 12.7144 49.8344 12.1936 49.7924 11.4227H55.3343C55.3343 10.7769 55.3133 10.2768 55.2713 9.92267C55.1873 9.33932 54.9774 8.81848 54.6625 8.36013C54.3267 7.86012 53.8858 7.48511 53.34 7.2351C52.8362 7.02676 52.2275 6.90176 51.5767 6.90176ZM51.5767 8.5268C52.0385 8.5268 52.4374 8.67264 52.7523 8.94348C53.0671 9.21432 53.2561 9.61016 53.2771 10.131H49.8344C49.8974 9.631 50.0863 9.25599 50.3592 8.96431C50.6531 8.67264 51.0519 8.5268 51.5767 8.5268ZM39.9472 12.2561C39.9472 13.0269 40.2411 13.6728 40.8079 14.1728C41.3746 14.6728 42.2563 14.9228 43.4738 14.9228C44.6494 14.9228 45.531 14.6936 46.0768 14.2145C46.6436 13.7353 46.9165 13.1311 46.9165 12.3811C46.9165 11.8186 46.7276 11.3394 46.3287 10.9644C45.9299 10.5894 45.3421 10.3185 44.5444 10.131C43.3479 9.881 42.6551 9.6935 42.4662 9.58933C42.2773 9.48516 42.1723 9.31849 42.1723 9.08932C42.1723 8.90181 42.2563 8.75597 42.4452 8.61014C42.6342 8.48513 42.949 8.4018 43.3689 8.4018C43.8937 8.4018 44.2715 8.5268 44.4814 8.79764C44.6074 8.94348 44.6704 9.15182 44.6914 9.40182H46.6856C46.6016 8.48513 46.2448 7.81845 45.657 7.44344C45.0482 7.06843 44.2715 6.88092 43.3269 6.88092C42.3193 6.88092 41.5426 7.13093 40.9968 7.63095C40.451 8.13096 40.1571 8.73514 40.1571 9.42266C40.1571 10.006 40.325 10.4644 40.6819 10.7769C41.0388 11.0894 41.6475 11.3602 42.5082 11.5685C43.7047 11.8602 44.3975 12.0477 44.5864 12.1727C44.7753 12.2977 44.8593 12.4644 44.8593 12.6727C44.8593 12.9019 44.7333 13.0686 44.5024 13.1936C44.2715 13.3186 43.9566 13.3603 43.5578 13.3603C42.8861 13.3603 42.4242 13.2353 42.1723 12.9644C42.0254 12.8186 41.9414 12.5686 41.8994 12.2144H39.9472V12.2561ZM34.8042 10.1518C34.0275 10.256 33.4397 10.4019 33.0408 10.631C32.3061 11.0477 31.9493 11.7144 31.9493 12.6519C31.9493 13.3603 32.1802 13.9228 32.621 14.3186C33.0828 14.7145 33.6496 14.902 34.3423 14.902C34.8881 14.902 35.3709 14.777 35.8118 14.527C36.1686 14.3186 36.4835 14.0686 36.7774 13.7769C36.7984 13.9436 36.8194 14.1103 36.8404 14.2353C36.8614 14.3603 36.9034 14.5061 36.9663 14.6728H39.1285V14.3811C39.0025 14.3186 38.8976 14.2353 38.8346 14.1519C38.7716 14.0686 38.7297 13.8811 38.7087 13.6311C38.7087 13.2978 38.6877 13.0061 38.6877 12.7561V9.27682C38.6877 8.36013 38.3518 7.73511 37.7011 7.42261C37.0503 7.08926 36.3156 6.92259 35.4759 6.92259C34.1954 6.92259 33.2718 7.25593 32.747 7.92262C32.4111 8.3393 32.2222 8.90181 32.1802 9.54766H34.1114C34.1534 9.25599 34.2584 9.02681 34.3843 8.86014C34.5733 8.63097 34.9301 8.50597 35.3919 8.50597C35.8118 8.50597 36.1476 8.56847 36.3576 8.67264C36.5675 8.79764 36.6934 9.00598 36.6934 9.31849C36.6934 9.5685 36.5465 9.756 36.2736 9.881C36.1057 9.94351 35.8538 10.006 35.4759 10.0477L34.8042 10.1518ZM36.6934 11.7144C36.6724 12.3811 36.4835 12.8394 36.1267 13.0894C35.7698 13.3394 35.35 13.4644 34.9301 13.4644C34.6572 13.4644 34.4263 13.3811 34.2374 13.2353C34.0485 13.0894 33.9435 12.8394 33.9435 12.5061C33.9435 12.1311 34.0904 11.8394 34.4053 11.6727C34.5942 11.5685 34.8881 11.4852 35.329 11.4019L35.7908 11.3185C36.0217 11.2769 36.1896 11.2352 36.3366 11.1727C36.4625 11.131 36.5885 11.0685 36.7144 10.9852V11.7144H36.6934ZM27.31 4.44336H22.335V14.6728H26.9742C27.499 14.6728 27.9818 14.6311 28.4226 14.527C28.8634 14.4436 29.2623 14.2561 29.5772 14.0061C29.8711 13.7978 30.102 13.5269 30.3119 13.1936C30.6268 12.7144 30.7737 12.1727 30.7737 11.5685C30.7737 10.9852 30.6478 10.4852 30.3749 10.0685C30.102 9.65183 29.7031 9.36016 29.1783 9.17265C29.5352 9.00598 29.7871 8.79764 29.955 8.5893C30.2699 8.21429 30.4378 7.71428 30.4378 7.08926C30.4378 6.48508 30.2699 5.96423 29.955 5.52672C29.4512 4.81837 28.5696 4.4642 27.31 4.44336ZM26.9112 10.1518C27.352 10.1518 27.6879 10.2143 27.9398 10.3185C28.3806 10.5269 28.5906 10.881 28.5906 11.4227C28.5906 12.0477 28.3596 12.4852 27.9188 12.6936C27.6669 12.8186 27.331 12.8811 26.8692 12.8811H24.3712V10.1518H26.9112ZM26.6173 6.21424C27.1001 6.21424 27.52 6.27674 27.8348 6.38091C28.2127 6.52675 28.3806 6.83926 28.3806 7.31844C28.3806 7.75595 28.2337 8.04762 27.9608 8.21429C27.6879 8.38096 27.31 8.4643 26.8692 8.4643H24.3712V6.21424H26.6173Z" fill="white"/>
</svg>
