<svg width="231" height="42" viewBox="0 0 231 42" fill="none" xmlns="http://www.w3.org/2000/svg">
<g clip-path="url(#clip0_310_1991)">
<path d="M24.6533 28.9689H17.6827L12.2626 18.5285H8.56691V24.1682H11.5079V28.9689H0V24.1682H2.94101V6.40075H0V1.6001H12.3495C15.7388 1.6001 18.3413 2.29246 20.1617 3.68634C21.9821 5.07564 22.8923 7.14813 22.8923 9.89464C22.8923 11.747 22.4167 13.2968 21.4653 14.5486C20.5139 15.7957 19.2515 16.7311 17.6873 17.3501L21.383 24.1728H24.6579V28.9735L24.6533 28.9689ZM16.8411 10.0184C16.8411 8.64289 16.434 7.69835 15.6244 7.17564C14.8103 6.65752 13.3832 6.39617 11.3387 6.39617H8.56691V14.058H11.2564C13.4107 14.058 14.8835 13.7095 15.6656 13.0034C16.4477 12.3018 16.8411 11.3069 16.8411 10.0139V10.0184Z" fill="#031114"/>
<path d="M28.0128 11.3253C29.6639 10.6513 31.0452 10.1974 32.1476 9.95896C33.2544 9.72053 34.5763 9.60132 36.1177 9.60132C38.1622 9.60132 39.9232 10.1332 41.4097 11.2015C42.8916 12.2699 43.6372 13.8839 43.6372 16.0435V24.2967C43.6372 25.278 44.0717 25.7686 44.9407 25.7686C45.1923 25.7686 45.4576 25.7273 45.7366 25.6402L45.7778 28.5013C44.6846 29.0928 43.5503 29.3863 42.3748 29.3863C39.882 29.3863 38.4961 28.1391 38.2171 25.6402V25.5989C37.6865 26.5526 36.9227 27.4238 35.9302 28.2079C34.9376 28.9919 33.6707 29.3863 32.1293 29.3863C30.7571 29.3863 29.4398 28.9782 28.182 28.1666C26.9242 27.355 26.293 25.9474 26.293 23.9574C26.293 21.6282 27.2215 20.083 29.0876 19.3264C30.9492 18.5699 32.9571 18.1893 35.116 18.1893C36.3189 18.1893 37.3572 18.2443 38.2263 18.359V17.7262C38.2263 16.745 38.0936 15.7913 37.8283 14.8651C37.563 13.9389 36.6574 13.4758 35.1206 13.4758C34.558 13.4758 34.0503 13.5125 33.5883 13.5812C33.1264 13.65 32.669 13.7967 32.2253 14.0214L31.5118 16.7175L27.1849 16.2544L28.0265 11.3299L28.0128 11.3253ZM38.2171 21.2201V20.9679C37.7689 20.9129 37.3161 20.8579 36.8541 20.7983C36.3921 20.7432 35.9347 20.7157 35.4911 20.7157C34.5397 20.7157 33.6981 20.89 32.9709 21.243C32.2436 21.5961 31.8777 22.2884 31.8777 23.3293C31.8777 23.9483 32.0469 24.4664 32.3808 24.8882C32.7147 25.3101 33.291 25.521 34.1052 25.521C35.0566 25.521 35.9439 25.1771 36.7718 24.4893C37.5951 23.8015 38.0799 22.7149 38.2217 21.2247L38.2171 21.2201Z" fill="#031114"/>
<path d="M69.0486 28.969H59.3473V24.8836H61.1129L57.838 21.1376H55.025V24.8836H56.7494V28.969H47.0893V24.8836H49.6095V4.12664H46.8789V0H55.025V17.3044H58.1764L60.9482 14.1039H58.6796V9.97729H68.1704V14.1039H66.1121L62.0368 18.7349L67.4111 24.8836H69.0486V28.969Z" fill="#031114"/>
<path d="M81.4365 28.9691H70.976V24.8837H73.4962V14.104H70.7656V9.97735H78.9117V24.8837H81.4319V28.9691H81.4365ZM73.2858 6.61185V0.967529H78.7059V6.60727H73.2858V6.61185Z" fill="#031114"/>
<path d="M91.0564 28.2949C91.0564 31.8897 90.3978 34.5491 89.0805 36.2731C87.7632 38.0017 85.2704 38.6803 81.6067 38.3135L81.4375 34.7325C82.5855 34.7325 83.5735 34.4161 84.3968 33.7834C85.2201 33.1506 85.6363 31.3211 85.6363 28.2903V14.0993H82.6953V9.97266H91.0518V28.2858L91.0564 28.2949Z" fill="#031114"/>
<path d="M96.1807 11.3253C97.8319 10.6513 99.2132 10.1974 100.316 9.95896C101.422 9.72053 102.744 9.60132 104.286 9.60132C106.33 9.60132 108.091 10.1332 109.578 11.2015C111.06 12.2699 111.805 13.8839 111.805 16.0435V24.2967C111.805 25.278 112.24 25.7686 113.109 25.7686C113.36 25.7686 113.626 25.7273 113.905 25.6402L113.946 28.5013C112.853 29.0928 111.718 29.3863 110.543 29.3863C108.05 29.3863 106.664 28.1391 106.385 25.6402V25.5989C105.855 26.5526 105.091 27.4238 104.098 28.2079C103.106 28.9919 101.839 29.3863 100.297 29.3863C98.9251 29.3863 97.6078 28.9782 96.35 28.1666C95.0921 27.355 94.4609 25.9474 94.4609 23.9574C94.4609 21.6282 95.3894 20.083 97.2556 19.3264C99.1172 18.5699 101.125 18.1893 103.284 18.1893C104.487 18.1893 105.525 18.2443 106.394 18.359V17.7262C106.394 16.745 106.262 15.7913 105.996 14.8651C105.731 13.9389 104.825 13.4758 103.289 13.4758C102.731 13.4758 102.218 13.5125 101.756 13.5812C101.294 13.65 100.837 13.7967 100.393 14.0214L99.6797 16.7175L95.3528 16.2544L96.1944 11.3299L96.1807 11.3253ZM106.385 21.2201V20.9679C105.937 20.9129 105.484 20.8579 105.022 20.7983C104.56 20.7432 104.103 20.7157 103.659 20.7157C102.708 20.7157 101.866 20.89 101.139 21.243C100.412 21.5961 100.046 22.2884 100.046 23.3293C100.046 23.9483 100.215 24.4664 100.549 24.8882C100.883 25.3101 101.459 25.521 102.273 25.521C103.225 25.521 104.112 25.1771 104.94 24.4893C105.768 23.8015 106.248 22.7149 106.39 21.2247L106.385 21.2201Z" fill="#031114"/>
<path d="M144.902 28.9689H133.394V24.1682H136.335V17.4739H124.786V24.1682H127.727V28.9689H116.219V24.1682H119.16V6.40075H116.219V1.6001H127.727V6.40075H124.786V12.7145H136.335V6.40075H133.394V1.6001H144.902V6.40075H141.961V24.1682H144.902V28.9689Z" fill="#B58D64"/>
<path d="M166.863 19.4961C166.863 22.4994 165.885 24.8974 163.922 26.6948C161.96 28.4922 159.472 29.3908 156.444 29.3908C153.416 29.3908 151.157 28.5426 149.327 26.8415C147.493 25.145 146.578 22.7653 146.578 19.707C146.578 16.9284 147.42 14.5441 149.098 12.5496C150.777 10.555 153.325 9.56006 156.741 9.56006C160.158 9.56006 162.697 10.5505 164.366 12.5267C166.031 14.5074 166.863 16.8275 166.863 19.4961ZM161.279 19.3264C161.279 17.3915 160.83 15.9747 159.934 15.076C159.037 14.1773 157.944 13.728 156.659 13.728C155.259 13.728 154.162 14.2277 153.361 15.2227C152.565 16.2177 152.163 17.6162 152.163 19.4136C152.163 21.0413 152.533 22.4168 153.274 23.5402C154.015 24.6636 155.131 25.2229 156.613 25.2229C158.013 25.2229 159.138 24.6956 159.993 23.6456C160.849 22.5911 161.274 21.1559 161.274 19.331L161.279 19.3264Z" fill="#B58D64"/>
<path d="M191.688 28.969H183.542V26.062C182.284 28.2537 180.253 29.345 177.454 29.345C175.661 29.345 174.106 28.8131 172.793 27.7448C171.476 26.6764 170.817 25.0212 170.817 22.779V14.0627H168.297V9.97729H176.237V20.6699C176.237 22.3251 176.512 23.4989 177.056 24.1867C177.6 24.8745 178.405 25.2183 179.471 25.2183C180.761 25.2183 181.758 24.7965 182.476 23.9574C183.189 23.1138 183.546 22.0362 183.546 20.7157V14.0627H180.482V9.97729H188.966V24.8836H191.697V28.969H191.688Z" fill="#B58D64"/>
<path d="M210.546 23.155C210.546 25.2596 209.714 26.8231 208.049 27.8502C206.384 28.8773 204.221 29.3862 201.559 29.3862C200.187 29.3862 198.81 29.2395 197.419 28.946C196.029 28.6526 194.712 28.1803 193.449 27.5338L194.204 22.2288L198.403 22.6919V25.0486C198.906 25.2183 199.436 25.3238 199.999 25.365C200.557 25.4063 200.978 25.4292 201.257 25.4292C202.291 25.4292 203.187 25.2596 203.946 24.9248C204.701 24.5901 205.081 24.0812 205.081 23.4072C205.081 22.5956 204.504 22.0591 203.356 21.8069C202.208 21.5548 200.877 21.3026 199.368 21.0504C197.854 20.7982 196.527 20.2801 195.379 19.4914C194.231 18.7074 193.66 17.3731 193.66 15.4932C193.66 13.1639 194.561 11.6004 196.367 10.798C198.174 10.0002 200.04 9.59668 201.975 9.59668C204.495 9.59668 206.86 10.1744 209.074 11.3207L209.536 16.1626L205.337 16.6257L205.003 13.9709C204.079 13.6637 203.086 13.5078 202.021 13.5078C201.321 13.5078 200.726 13.6545 200.237 13.948C199.747 14.2414 199.5 14.7 199.5 15.3144C199.5 16.1305 200.054 16.667 201.161 16.9375C202.268 17.2034 203.553 17.4648 205.026 17.717C206.494 17.9692 207.784 18.4827 208.891 19.253C209.998 20.0233 210.551 21.3255 210.551 23.1458L210.546 23.155Z" fill="#B58D64"/>
<path d="M230.999 22.99C230.857 24.6727 230.034 26.1629 228.52 27.4513C227.006 28.7443 224.893 29.3863 222.176 29.3863C219.459 29.3863 217.017 28.5839 215.182 26.9882C213.348 25.388 212.434 23.0037 212.434 19.8308C212.434 16.9101 213.266 14.4753 214.931 12.5266C216.596 10.578 218.929 9.60132 221.924 9.60132C224.554 9.60132 226.69 10.3579 228.328 11.8756C229.965 13.3932 230.798 15.3832 230.825 17.8546C230.825 18.7808 230.725 19.6932 230.532 20.5919H218.101C218.407 23.5952 219.894 25.0991 222.551 25.0991C224.006 25.0991 224.994 24.7461 225.51 24.0445C226.027 23.343 226.343 22.7103 226.457 22.1509L230.994 22.9946L230.999 22.99ZM225.245 17.4328C225.355 16.479 225.154 15.5804 224.637 14.7367C224.12 13.893 223.214 13.4758 221.929 13.4758C220.808 13.4758 219.939 13.8426 219.326 14.5716C218.709 15.3007 218.32 16.2544 218.151 17.4328H225.25H225.245Z" fill="#B58D64"/>
<path d="M88.6862 7.8179e-06C86.2255 -0.00457733 84.2084 2.00831 84.1992 4.47512V5.56638C85.8595 4.819 88.3615 3.60852 89.2168 2.74193C90.1819 1.76071 87.8766 4.90612 85.9556 6.69433H88.5033C90.8497 6.70809 92.757 4.80525 92.7615 2.45306V0.00917812L88.6862 7.8179e-06Z" fill="#B58D64"/>
<path d="M100.781 41.381V35.1819H101.568V41.381H100.781Z" fill="#031114"/>
<path d="M106.822 41.4589C106.63 41.4589 106.415 41.4497 106.172 41.4268C105.93 41.4039 105.688 41.3809 105.45 41.3443C105.212 41.3122 105.001 41.2847 104.823 41.2572L104.896 40.6106C105.075 40.629 105.28 40.6519 105.509 40.6748C105.738 40.6978 105.967 40.7207 106.195 40.739C106.424 40.7574 106.616 40.7665 106.776 40.7665C107.055 40.7665 107.288 40.7253 107.476 40.6427C107.659 40.5602 107.801 40.4318 107.892 40.2622C107.984 40.0925 108.029 39.8724 108.029 39.6019C108.029 39.3864 107.988 39.2122 107.906 39.0792C107.824 38.9462 107.682 38.8454 107.49 38.7674C107.298 38.6941 107.032 38.6207 106.708 38.5565C106.378 38.4923 106.095 38.4144 105.852 38.3318C105.61 38.2493 105.409 38.1392 105.248 38.0063C105.088 37.8733 104.969 37.7082 104.892 37.5111C104.814 37.3139 104.777 37.0663 104.777 36.7729C104.777 36.3602 104.86 36.0301 105.029 35.7825C105.198 35.5349 105.431 35.3515 105.738 35.2414C106.044 35.1268 106.396 35.0718 106.804 35.0718C106.982 35.0718 107.188 35.0809 107.421 35.1039C107.654 35.1268 107.883 35.1497 108.112 35.1772C108.34 35.2047 108.533 35.2323 108.693 35.2644L108.638 35.92C108.459 35.8971 108.254 35.8742 108.029 35.8513C107.801 35.8283 107.581 35.81 107.371 35.7916C107.16 35.7733 106.987 35.7641 106.854 35.7641C106.579 35.7641 106.346 35.8008 106.154 35.8696C105.962 35.9384 105.82 36.0438 105.72 36.186C105.619 36.3281 105.573 36.5069 105.573 36.7224C105.573 36.9792 105.619 37.1764 105.715 37.3047C105.811 37.4377 105.967 37.5386 106.182 37.6165C106.396 37.6899 106.676 37.7678 107.023 37.8458C107.339 37.9237 107.613 38.0063 107.837 38.0888C108.061 38.1713 108.254 38.2768 108.4 38.4006C108.551 38.5244 108.656 38.6757 108.725 38.8637C108.793 39.0517 108.825 39.2764 108.825 39.5469C108.825 40.01 108.743 40.3814 108.578 40.6611C108.414 40.9408 108.18 41.1471 107.883 41.2755C107.586 41.4039 107.229 41.4681 106.817 41.4681L106.822 41.4589Z" fill="#031114"/>
<path d="M112.02 41.381V35.1819H112.806V38.0201L113.78 37.9834L115.294 35.1819H116.182L114.48 38.2906L116.282 41.381H115.368L113.79 38.6849L112.806 38.7216V41.381H112.02Z" fill="#031114"/>
<path d="M121.347 41.4681C120.885 41.4681 120.496 41.4039 120.167 41.271C119.842 41.138 119.591 40.9271 119.417 40.6336C119.243 40.3402 119.156 39.9504 119.156 39.4644V35.1819H119.943V39.4919C119.943 39.9459 120.066 40.276 120.309 40.4777C120.551 40.6795 120.899 40.7804 121.338 40.7804C121.805 40.7804 122.161 40.6795 122.408 40.4777C122.655 40.276 122.779 39.9504 122.779 39.4919V35.1819H123.565V39.4644C123.565 39.9413 123.479 40.331 123.305 40.629C123.131 40.9271 122.879 41.138 122.546 41.271C122.216 41.4039 121.809 41.4681 121.333 41.4681H121.347Z" fill="#031114"/>
<path d="M128.783 41.4589C128.591 41.4589 128.376 41.4497 128.133 41.4268C127.891 41.4039 127.648 41.3809 127.411 41.3443C127.173 41.3122 126.962 41.2847 126.784 41.2572L126.857 40.6106C127.036 40.629 127.241 40.6519 127.47 40.6748C127.699 40.6978 127.927 40.7207 128.156 40.739C128.385 40.7574 128.577 40.7665 128.737 40.7665C129.016 40.7665 129.249 40.7253 129.437 40.6427C129.62 40.5602 129.762 40.4318 129.853 40.2622C129.945 40.0925 129.99 39.8724 129.99 39.6019C129.99 39.3864 129.949 39.2122 129.867 39.0792C129.784 38.9462 129.643 38.8454 129.451 38.7674C129.258 38.6895 128.993 38.6207 128.668 38.5565C128.344 38.4923 128.056 38.4144 127.813 38.3318C127.571 38.2493 127.369 38.1392 127.209 38.0063C127.049 37.8733 126.93 37.7082 126.853 37.5111C126.775 37.3139 126.738 37.0663 126.738 36.7729C126.738 36.3602 126.821 36.0301 126.99 35.7825C127.159 35.5349 127.392 35.3515 127.699 35.2414C128.005 35.1268 128.357 35.0718 128.765 35.0718C128.943 35.0718 129.149 35.0809 129.382 35.1039C129.615 35.1268 129.844 35.1497 130.073 35.1772C130.301 35.2047 130.493 35.2323 130.654 35.2644L130.599 35.92C130.42 35.8971 130.214 35.8742 129.99 35.8513C129.762 35.8283 129.542 35.81 129.332 35.7916C129.121 35.7733 128.947 35.7641 128.815 35.7641C128.54 35.7641 128.307 35.8008 128.115 35.8696C127.923 35.9384 127.781 36.0438 127.681 36.186C127.58 36.3281 127.534 36.5069 127.534 36.7224C127.534 36.9792 127.58 37.1764 127.676 37.3047C127.772 37.4377 127.927 37.5386 128.142 37.6165C128.357 37.6899 128.636 37.7678 128.984 37.8458C129.3 37.9237 129.574 38.0063 129.798 38.0888C130.022 38.1713 130.214 38.2768 130.361 38.4006C130.512 38.5244 130.617 38.6757 130.686 38.8637C130.754 39.0517 130.791 39.2764 130.791 39.5469C130.791 40.01 130.708 40.3814 130.544 40.6611C130.379 40.9408 130.146 41.1471 129.849 41.2755C129.551 41.4039 129.194 41.4681 128.783 41.4681V41.4589Z" fill="#031114"/>
<path d="M133.977 41.381V35.1819H134.763V41.381H133.977Z" fill="#031114"/>
<path d="M144.453 41.4681C143.991 41.4681 143.602 41.4039 143.273 41.271C142.948 41.138 142.696 40.9271 142.522 40.6336C142.349 40.3402 142.262 39.9504 142.262 39.4644V35.1819H143.048V39.4919C143.048 39.9459 143.172 40.276 143.414 40.4777C143.657 40.6795 144.004 40.7804 144.443 40.7804C144.91 40.7804 145.267 40.6795 145.514 40.4777C145.761 40.276 145.884 39.9504 145.884 39.4919V35.1819H146.671V39.4644C146.671 39.9413 146.584 40.331 146.41 40.629C146.236 40.9271 145.985 41.138 145.651 41.271C145.317 41.4039 144.915 41.4681 144.439 41.4681H144.453Z" fill="#031114"/>
<path d="M150.152 41.381V35.1819H150.939V38.0201L151.918 37.9834L153.432 35.1819H154.319L152.618 38.2906L154.42 41.381H153.505L151.927 38.6849L150.944 38.7216V41.381H150.157H150.152Z" fill="#031114"/>
<path d="M159.476 41.4681C159.014 41.4681 158.625 41.4039 158.296 41.271C157.971 41.138 157.72 40.9271 157.546 40.6336C157.372 40.3402 157.285 39.9504 157.285 39.4644V35.1819H158.072V39.4919C158.072 39.9459 158.195 40.276 158.438 40.4777C158.68 40.6795 159.028 40.7804 159.467 40.7804C159.933 40.7804 160.29 40.6795 160.537 40.4777C160.784 40.276 160.908 39.9504 160.908 39.4919V35.1819H161.694V39.4644C161.694 39.9413 161.607 40.331 161.434 40.629C161.26 40.9271 161.008 41.138 160.674 41.271C160.341 41.4039 159.938 41.4681 159.462 41.4681H159.476Z" fill="#031114"/>
<path d="M166.916 41.4589C166.724 41.4589 166.509 41.4497 166.266 41.4268C166.024 41.4039 165.781 41.3809 165.543 41.3443C165.306 41.3122 165.095 41.2847 164.917 41.2572L164.99 40.6106C165.168 40.629 165.374 40.6519 165.603 40.6748C165.832 40.6978 166.06 40.7207 166.289 40.739C166.518 40.7574 166.71 40.7665 166.87 40.7665C167.149 40.7665 167.382 40.7253 167.57 40.6427C167.753 40.5602 167.894 40.4318 167.986 40.2622C168.077 40.0925 168.123 39.8724 168.123 39.6019C168.123 39.3864 168.082 39.2122 168 39.0792C167.917 38.9462 167.776 38.8454 167.583 38.7674C167.391 38.6895 167.126 38.6207 166.801 38.5565C166.477 38.4923 166.188 38.4144 165.946 38.3318C165.704 38.2493 165.502 38.1392 165.342 38.0063C165.182 37.8733 165.063 37.7082 164.985 37.5111C164.908 37.3139 164.871 37.0663 164.871 36.7729C164.871 36.3602 164.953 36.0301 165.123 35.7825C165.292 35.5349 165.525 35.3515 165.832 35.2414C166.138 35.1268 166.49 35.0718 166.897 35.0718C167.076 35.0718 167.282 35.0809 167.515 35.1039C167.748 35.1268 167.977 35.1497 168.205 35.1772C168.434 35.2047 168.626 35.2323 168.786 35.2644L168.731 35.92C168.553 35.8971 168.347 35.8742 168.123 35.8513C167.894 35.8283 167.675 35.81 167.464 35.7916C167.254 35.7733 167.08 35.7641 166.948 35.7641C166.673 35.7641 166.44 35.8008 166.248 35.8696C166.056 35.9384 165.914 36.0438 165.813 36.186C165.713 36.3281 165.667 36.5069 165.667 36.7224C165.667 36.9792 165.713 37.1764 165.809 37.3047C165.905 37.4377 166.06 37.5386 166.275 37.6165C166.49 37.6899 166.769 37.7678 167.117 37.8458C167.432 37.9237 167.707 38.0063 167.931 38.0888C168.155 38.1713 168.347 38.2768 168.494 38.4006C168.645 38.5244 168.75 38.6757 168.818 38.8637C168.887 39.0517 168.924 39.2764 168.924 39.5469C168.924 40.01 168.841 40.3814 168.677 40.6611C168.512 40.9408 168.279 41.1471 167.981 41.2755C167.684 41.4039 167.327 41.4681 166.916 41.4681V41.4589Z" fill="#031114"/>
<path d="M177.388 41.381V35.8834H175.531V35.1819H180.009V35.8834H178.17V41.381H177.384H177.388Z" fill="#031114"/>
<path d="M182.918 41.381V35.1819H185.228C185.676 35.1819 186.051 35.2461 186.348 35.379C186.646 35.512 186.874 35.7183 187.025 35.998C187.176 36.2777 187.254 36.64 187.254 37.0847C187.254 37.5295 187.163 37.9238 186.984 38.231C186.806 38.5382 186.527 38.7583 186.152 38.8913L187.3 41.381H186.44L185.383 39.0655H183.709V41.381H182.923H182.918ZM183.705 38.3777H185.246C185.539 38.3777 185.772 38.3227 185.95 38.2127C186.129 38.1026 186.252 37.9467 186.326 37.7542C186.399 37.5616 186.44 37.3415 186.44 37.0939C186.44 36.6812 186.339 36.374 186.143 36.1677C185.946 35.9659 185.639 35.8605 185.228 35.8605H183.705V38.3777Z" fill="#031114"/>
<path d="M189.918 41.381L191.583 35.1819H193.22L194.885 41.381H194.098L193.669 39.8542H191.125L190.696 41.381H189.918ZM191.281 39.171H193.522L192.626 35.8467H192.177L191.281 39.171Z" fill="#031114"/>
<path d="M197.863 41.381V35.1819H200.095C200.557 35.1819 200.937 35.2552 201.239 35.402C201.541 35.5487 201.779 35.755 201.957 36.0164C202.131 36.2777 202.259 36.5941 202.332 36.9655C202.405 37.3323 202.446 37.7404 202.446 38.1897C202.446 38.6391 202.41 39.0563 202.337 39.4415C202.263 39.8266 202.14 40.1659 201.966 40.4548C201.788 40.7437 201.55 40.9729 201.248 41.1334C200.946 41.2939 200.566 41.3764 200.104 41.3764H197.863V41.381ZM198.655 40.6886H200.095C200.411 40.6886 200.667 40.6199 200.864 40.4869C201.06 40.3539 201.216 40.1659 201.326 39.9321C201.435 39.6983 201.513 39.4323 201.559 39.1389C201.605 38.8408 201.628 38.529 201.628 38.1897C201.628 37.8504 201.605 37.557 201.559 37.2727C201.513 36.9884 201.435 36.7454 201.326 36.5345C201.216 36.3236 201.06 36.1631 200.859 36.0439C200.658 35.9247 200.402 35.8697 200.091 35.8697H198.65V40.6841L198.655 40.6886Z" fill="#031114"/>
<path d="M205.707 41.381V35.1819H206.494V41.381H205.707Z" fill="#031114"/>
<path d="M212.073 41.468C211.602 41.468 211.218 41.3992 210.921 41.2662C210.624 41.1333 210.39 40.9315 210.221 40.661C210.052 40.3905 209.933 40.0603 209.873 39.666C209.809 39.2717 209.777 38.8132 209.777 38.2905C209.777 37.7678 209.809 37.3001 209.873 36.8966C209.937 36.4931 210.052 36.1584 210.221 35.8924C210.39 35.6265 210.624 35.4202 210.925 35.2872C211.223 35.1542 211.607 35.0854 212.073 35.0854C212.288 35.0854 212.503 35.0946 212.714 35.1175C212.924 35.1405 213.125 35.168 213.313 35.2001C213.5 35.2322 213.661 35.2643 213.793 35.2964L213.766 35.952C213.633 35.9291 213.473 35.9062 213.286 35.8787C213.098 35.8558 212.906 35.8374 212.709 35.8191C212.513 35.8053 212.334 35.7961 212.169 35.7961C211.836 35.7961 211.566 35.8466 211.36 35.9383C211.154 36.0346 210.994 36.1859 210.884 36.3922C210.774 36.5986 210.697 36.8599 210.656 37.1717C210.614 37.4881 210.591 37.8595 210.591 38.2905C210.591 38.7215 210.614 39.0837 210.656 39.4001C210.697 39.7165 210.77 39.9732 210.88 40.1704C210.989 40.3721 211.145 40.5189 211.355 40.6197C211.566 40.7206 211.84 40.7665 212.179 40.7665C212.43 40.7665 212.705 40.7481 213.002 40.716C213.299 40.6839 213.555 40.6472 213.766 40.6106L213.793 41.2754C213.651 41.3075 213.482 41.335 213.29 41.3671C213.098 41.3992 212.897 41.4221 212.686 41.4405C212.476 41.4588 212.27 41.468 212.073 41.468Z" fill="#031114"/>
<path d="M216.93 41.381V35.1819H217.716V41.381H216.93Z" fill="#031114"/>
<path d="M220.614 42V41.3076C220.806 41.3076 220.966 41.2984 221.094 41.2755C221.222 41.2526 221.323 41.2113 221.392 41.1517C221.46 41.0875 221.506 40.9912 221.533 40.8537C221.561 40.7207 221.574 40.5419 221.574 40.3172V35.1772H222.361V40.4777C222.361 40.8124 222.329 41.0829 222.261 41.2847C222.197 41.4864 222.087 41.6423 221.94 41.7432C221.794 41.8441 221.611 41.9128 221.392 41.9449C221.172 41.977 220.911 41.9954 220.609 41.9954L220.614 42Z" fill="#031114"/>
<path d="M225.844 41.381V35.1819H229.668V35.8742H226.63V37.8963H229.132V38.5795H226.63V40.6886H229.668V41.381H225.844Z" fill="#031114"/>
</g>
<defs>
<clipPath id="clip0_310_1991">
<rect width="231" height="42" fill="white"/>
</clipPath>
</defs>
</svg>
