<?xml version="1.0" encoding="utf-8"?>
<!-- Generator: Adobe Illustrator 18.0.0, SVG Export Plug-In . SVG Version: 6.00 Build 0)  -->
<!DOCTYPE svg PUBLIC "-//W3C//DTD SVG 1.1//EN" "http://www.w3.org/Graphics/SVG/1.1/DTD/svg11.dtd">
<svg version="1.1" id="Layer_1" xmlns="http://www.w3.org/2000/svg" xmlns:xlink="http://www.w3.org/1999/xlink" x="0px" y="0px"
	 viewBox="0 0 261 57" enable-background="new 0 0 261 57" xml:space="preserve">
<path fill="#3E5BA9" d="M21.6,56.1c-11.5,0-20.4-7.3-21.5-18c-0.7-7.6,3.3-12,6.7-15.9c3-3.3,5.6-6.2,5.1-10.4
	C11.3,4.9,5.7,2.4,1.2,2.2C0.9,2.2,0.7,2,0.6,1.7c0-0.3,0.1-0.5,0.4-0.6c1.8-0.5,3.6-0.8,5.3-0.9c19.8-2,34.6,13,36.9,28.1
	c1.5,9.7-1.6,16-4.4,19.7c-3.6,4.6-9,7.6-14.8,8.1C23.2,56.1,22.4,56.1,21.6,56.1z M4.4,1.5c4.3,1.2,8.1,4.4,8.7,10.1
	c0.5,4.8-2.4,8-5.5,11.3c-3.5,3.9-7.2,7.9-6.5,15c1.1,10.9,10.6,18,22.8,16.9c5.5-0.5,10.6-3.3,14-7.7c2.7-3.5,5.6-9.5,4.2-18.8
	C39.9,13.9,25.7-0.6,6.5,1.2C5.8,1.3,5.1,1.4,4.4,1.5z M21.6,52.7c-4.7,0-9-1.5-12.4-4.3C5.8,45.5,3.8,41.6,3.4,37
	c-0.4-5,2.8-8.9,6-12.6c2.7-3.1,5.2-6.2,5.6-9.8c0.3-2.8,0.3-7.9-3.1-10.8c-0.2-0.2-0.3-0.4-0.2-0.7C11.8,3,12,2.8,12.3,2.8
	C27.1,5,38.1,15.1,40.2,28.6c1.3,8.3-1.4,13.8-3.9,16.9c-3.1,4-7.8,6.6-12.7,7C22.9,52.7,22.2,52.7,21.6,52.7z M13.8,4.3
	c2.6,3.3,2.6,7.8,2.3,10.5c-0.4,4.1-3.2,7.3-5.9,10.5c-3.1,3.7-6.1,7.1-5.7,11.7c0.3,4.3,2.2,8,5.4,10.6c3.6,3,8.4,4.4,13.5,4
	c4.6-0.4,8.9-2.8,11.9-6.6c2.3-3,4.9-8.2,3.7-16C37.1,16.4,27.3,6.9,13.8,4.3z M21.7,49.3c-3.9,0-7.7-1.4-10.4-3.9
	C8.5,42.9,7,39.6,7,36c0-3.9,2.5-6.9,5.2-10.2c3.9-4.6,7.8-9.4,5.6-17.6c-0.1-0.2,0-0.4,0.2-0.5c0.1-0.1,0.4-0.2,0.5-0.1
	c7.7,2.3,16.9,10.7,18.6,21.6c0.8,5.1-0.4,10.1-3.5,14c-2.7,3.5-6.6,5.7-10.5,6.1C22.7,49.3,22.2,49.3,21.7,49.3z M19.2,8.9
	c1.8,8.2-2.4,13.2-6.1,17.6c-2.5,3.1-4.9,6-4.9,9.4c0,3.3,1.4,6.3,3.9,8.6c2.9,2.6,6.9,3.9,11.1,3.6c3.6-0.3,7.2-2.4,9.7-5.6
	c2.8-3.7,4-8.3,3.3-13.1C34.5,19.3,26.4,11.5,19.2,8.9z M21.9,45.6c-3,0-5.9-1-7.9-2.9c-2-1.8-3.1-4.4-3.1-7.1
	c0-3.1,1.9-5.3,4.1-7.9c3-3.5,6.3-7.4,6.4-15c0-0.2,0.1-0.4,0.3-0.5c0.2-0.1,0.4-0.1,0.6,0c7,5,10.9,10.8,11.8,17.7
	c0.5,3.8-0.6,7.8-3.1,10.9c-2.2,2.7-5,4.4-7.9,4.6C22.7,45.5,22.3,45.6,21.9,45.6z M22.5,13.8c-0.4,7.3-3.8,11.3-6.6,14.6
	c-2,2.4-3.8,4.5-3.8,7.2c0,2.4,1,4.7,2.7,6.3c2.1,1.9,5,2.8,8.2,2.5c2.5-0.2,5.1-1.8,7.1-4.2c2.3-2.9,3.4-6.6,2.9-10.1
	C32.1,23.8,28.7,18.4,22.5,13.8z M21.7,42.1c-2.2,0-4-0.6-5.2-1.7c-1.2-1.1-1.8-2.7-1.8-4.6c0-2.1,1.6-4,3.5-6.1
	c2.3-2.7,5.2-6,5.7-10.8c0-0.2,0.2-0.4,0.4-0.5c0.2-0.1,0.4,0,0.6,0.1c3.5,3.6,5.3,7.4,5.9,12.4c0.3,2.7-0.7,5.8-2.6,8.1
	c-1.5,1.9-3.4,2.9-5.4,3.1C22.3,42.1,22,42.1,21.7,42.1z M24.7,20.1c-0.9,4.5-3.6,7.7-5.8,10.3c-1.7,2-3.2,3.7-3.2,5.4
	c0,1.6,0.5,2.9,1.5,3.8c1.2,1.1,3,1.6,5.4,1.4c1.6-0.1,3.3-1.1,4.6-2.7c1.7-2.1,2.6-4.9,2.3-7.3C29.1,26.6,27.6,23.2,24.7,20.1z"/>
<path fill="#3E5BA9" d="M56.2,10.8h8.3c1.2,0,2.3,0.2,3.3,0.5c1,0.3,1.9,0.7,2.6,1.3c0.7,0.6,1.3,1.3,1.6,2.2
	c0.4,0.8,0.6,1.8,0.6,2.9v0.1c0,1.2-0.2,2.2-0.6,3c-0.4,0.9-1,1.6-1.7,2.2c-0.7,0.6-1.6,1-2.6,1.3c-1,0.3-2.1,0.4-3.4,0.4h-2.7v5.6
	h-5.4L56.2,10.8L56.2,10.8z M64.2,20.5c0.9,0,1.7-0.2,2.3-0.7c0.5-0.4,0.8-1.1,0.8-1.9v-0.1c0-0.8-0.3-1.5-0.8-1.9
	c-0.5-0.4-1.3-0.6-2.3-0.6h-2.5v5.2H64.2z"/>
<path fill="#3E5BA9" d="M74.9,10.8h9.2c1.5,0,2.8,0.2,3.8,0.5c1,0.4,1.9,0.9,2.5,1.6c1.2,1.1,1.7,2.6,1.7,4.5v0.1
	c0,1.5-0.4,2.7-1.1,3.7c-0.7,1-1.7,1.7-2.9,2.2l4.6,6.8h-6.2l-4-5.9h-0.1h-2.3v5.9h-5.4L74.9,10.8L74.9,10.8z M83.9,20.2
	c0.9,0,1.6-0.2,2.1-0.6c0.5-0.4,0.7-1,0.7-1.7v-0.1c0-0.8-0.3-1.4-0.8-1.7c-0.5-0.4-1.2-0.6-2.1-0.6h-3.5v4.7H83.9z"/>
<path fill="#3E5BA9" d="M104.7,30.6c-1.5,0-2.9-0.3-4.2-0.8c-1.3-0.5-2.4-1.3-3.3-2.2s-1.7-2-2.2-3.2c-0.5-1.2-0.8-2.5-0.8-3.9v-0.1
	c0-1.4,0.3-2.7,0.8-3.9c0.5-1.2,1.3-2.3,2.2-3.2c0.9-0.9,2.1-1.6,3.3-2.2c1.3-0.5,2.7-0.8,4.2-0.8c1.5,0,2.9,0.3,4.2,0.8
	c1.3,0.5,2.4,1.3,3.3,2.2c0.9,0.9,1.7,2,2.2,3.2c0.5,1.2,0.8,2.5,0.8,3.9v0.1c0,1.4-0.3,2.7-0.8,3.9c-0.5,1.2-1.3,2.3-2.2,3.2
	c-0.9,0.9-2.1,1.6-3.3,2.2C107.6,30.4,106.2,30.6,104.7,30.6z M104.7,25.8c0.7,0,1.4-0.1,2-0.4c0.6-0.3,1.1-0.6,1.6-1.1
	c0.4-0.5,0.7-1,1-1.7c0.2-0.6,0.4-1.3,0.4-2v-0.1c0-0.7-0.1-1.4-0.4-2c-0.2-0.6-0.6-1.2-1-1.7c-0.4-0.5-1-0.9-1.6-1.2
	c-0.6-0.3-1.3-0.4-2-0.4c-0.7,0-1.4,0.1-2,0.4c-0.6,0.3-1.1,0.6-1.6,1.1c-0.4,0.5-0.8,1-1,1.7c-0.2,0.6-0.3,1.3-0.3,2v0.1
	c0,0.7,0.1,1.4,0.4,2c0.2,0.6,0.6,1.2,1,1.7c0.4,0.5,0.9,0.9,1.6,1.2C103.3,25.6,104,25.8,104.7,25.8z"/>
<path fill="#3E5BA9" d="M127.9,30.6c-1.5,0-2.9-0.2-4.2-0.7c-1.3-0.5-2.4-1.2-3.4-2.1c-0.9-0.9-1.7-2-2.2-3.2
	c-0.5-1.2-0.8-2.6-0.8-4.1v-0.1c0-1.4,0.3-2.7,0.8-4c0.5-1.2,1.3-2.3,2.2-3.2c0.9-0.9,2-1.6,3.3-2.2c1.3-0.5,2.7-0.8,4.2-0.8
	c1.7,0,3.2,0.2,4.5,0.7c1.3,0.5,2.4,1.2,3.4,2.1l-3.2,3.8c-0.7-0.6-1.4-1-2.2-1.4c-0.7-0.3-1.6-0.5-2.5-0.5c-0.7,0-1.4,0.1-2,0.4
	c-0.6,0.3-1.1,0.6-1.6,1.2c-0.4,0.5-0.8,1-1,1.7c-0.2,0.6-0.4,1.4-0.4,2.1v0.1c0,0.8,0.1,1.5,0.4,2.2c0.3,0.7,0.6,1.3,1.1,1.7
	c0.5,0.5,1,0.8,1.7,1.1c0.6,0.3,1.4,0.4,2.1,0.4c1.3,0,2.3-0.3,3.1-0.8v-2.4h-3.8v-3.9h8.9v8.7c-1,0.8-2.3,1.6-3.7,2.1
	C131.3,30.3,129.7,30.6,127.9,30.6z"/>
<path fill="#3E5BA9" d="M139.4,10.8h9.2c1.5,0,2.8,0.2,3.8,0.5c1,0.4,1.9,0.9,2.5,1.6c1.2,1.1,1.7,2.6,1.7,4.5v0.1
	c0,1.5-0.4,2.7-1.1,3.7c-0.7,1-1.7,1.7-2.9,2.2l4.6,6.8H151l-3.9-5.9H147h-2.3v5.9h-5.4V10.8z M148.3,20.2c0.9,0,1.6-0.2,2.1-0.6
	c0.5-0.4,0.7-1,0.7-1.7v-0.1c0-0.8-0.3-1.4-0.8-1.7c-0.5-0.4-1.2-0.6-2.1-0.6h-3.5v4.7H148.3z"/>
<path fill="#3E5BA9" d="M159.3,10.8h15.6v4.6h-10.3v2.9h9.3v4.3h-9.3v3.1h10.4v4.6h-15.7V10.8z"/>
<path fill="#3E5BA9" d="M185.5,30.6c-1.7,0-3.4-0.3-4.9-0.8c-1.6-0.5-2.9-1.4-4.2-2.4l3-3.6c1.9,1.6,4.1,2.3,6.3,2.3
	c0.7,0,1.3-0.1,1.7-0.3c0.4-0.2,0.6-0.6,0.6-1v-0.1c0-0.2,0-0.4-0.1-0.5c-0.1-0.2-0.3-0.3-0.5-0.5c-0.2-0.1-0.6-0.3-1-0.4
	c-0.4-0.1-0.9-0.3-1.6-0.4c-1-0.2-2-0.5-2.9-0.8c-0.9-0.3-1.7-0.6-2.3-1.1c-0.6-0.4-1.2-1-1.6-1.7c-0.4-0.7-0.6-1.5-0.6-2.5v-0.1
	c0-0.9,0.2-1.7,0.5-2.5c0.3-0.7,0.8-1.4,1.5-2c0.6-0.5,1.5-1,2.4-1.3c0.9-0.3,2-0.5,3.1-0.5c1.7,0,3.1,0.2,4.5,0.6
	c1.3,0.4,2.5,1.1,3.6,1.9l-2.7,3.8c-0.9-0.6-1.8-1.1-2.7-1.4c-0.9-0.3-1.8-0.5-2.7-0.5c-0.6,0-1.1,0.1-1.5,0.4
	c-0.3,0.2-0.5,0.5-0.5,0.9v0.1c0,0.2,0.1,0.4,0.2,0.6c0.1,0.2,0.3,0.3,0.5,0.5c0.2,0.1,0.6,0.3,1,0.4c0.4,0.1,1,0.3,1.7,0.4
	c1.1,0.2,2.1,0.5,3,0.8c0.9,0.3,1.7,0.7,2.3,1.2c0.6,0.5,1.1,1,1.5,1.7c0.3,0.6,0.5,1.4,0.5,2.3v0.1c0,1-0.2,1.9-0.6,2.7
	c-0.4,0.8-0.9,1.4-1.6,2c-0.7,0.5-1.5,0.9-2.5,1.3C187.7,30.4,186.7,30.6,185.5,30.6z"/>
<path fill="#3E5BA9" d="M203.6,30.6c-1.7,0-3.4-0.3-4.9-0.8c-1.6-0.5-2.9-1.4-4.2-2.4l3-3.6c1.9,1.6,4.1,2.3,6.3,2.3
	c0.7,0,1.3-0.1,1.7-0.3c0.4-0.2,0.6-0.6,0.6-1v-0.1c0-0.2,0-0.4-0.1-0.5c-0.1-0.2-0.3-0.3-0.5-0.5c-0.2-0.1-0.6-0.3-1-0.4
	c-0.4-0.1-0.9-0.3-1.6-0.4c-1-0.2-2-0.5-2.9-0.8c-0.9-0.3-1.7-0.6-2.3-1.1c-0.6-0.4-1.2-1-1.6-1.7c-0.4-0.7-0.6-1.5-0.6-2.5v-0.1
	c0-0.9,0.2-1.7,0.5-2.5c0.3-0.7,0.8-1.4,1.5-2c0.6-0.5,1.5-1,2.4-1.3c0.9-0.3,2-0.5,3.1-0.5c1.7,0,3.1,0.2,4.5,0.6
	c1.3,0.4,2.5,1.1,3.6,1.9l-2.7,3.8c-0.9-0.6-1.8-1.1-2.7-1.4c-0.9-0.3-1.8-0.5-2.7-0.5c-0.6,0-1.2,0.1-1.5,0.4
	c-0.3,0.2-0.5,0.5-0.5,0.9v0.1c0,0.2,0,0.4,0.1,0.6c0.1,0.2,0.3,0.3,0.5,0.5c0.2,0.1,0.6,0.3,1,0.4c0.4,0.1,1,0.3,1.7,0.4
	c1.1,0.2,2.1,0.5,3,0.8c0.9,0.3,1.7,0.7,2.3,1.2c0.6,0.5,1.1,1,1.5,1.7c0.3,0.6,0.5,1.4,0.5,2.3v0.1c0,1-0.2,1.9-0.6,2.7
	c-0.4,0.8-0.9,1.4-1.6,2c-0.7,0.5-1.5,0.9-2.5,1.3C205.9,30.4,204.8,30.6,203.6,30.6z"/>
<path fill="#3E5BA9" d="M214.2,10.8h5.4v19.4h-5.4V10.8z"/>
<path fill="#3E5BA9" d="M221.6,10.8h6l4.4,12.3l4.4-12.3h5.9l-7.9,19.6h-5L221.6,10.8z"/>
<path fill="#3E5BA9" d="M244.3,10.8h15.6v4.6h-10.3v2.9h9.3v4.3h-9.3v3.1h10.5v4.6h-15.7L244.3,10.8L244.3,10.8z"/>
<path fill="#3E5BA9" d="M65,54c-1.4,0-2.6-0.2-3.8-0.5c-1.1-0.3-2.1-0.9-2.8-1.6c-0.8-0.7-1.4-1.7-1.8-2.8c-0.4-1.1-0.6-2.4-0.6-4
	V34.2h5.5V45c0,1.4,0.3,2.4,0.9,3.1c0.6,0.7,1.5,1,2.6,1c1.1,0,2-0.3,2.6-1c0.6-0.6,0.9-1.7,0.9-3V34.2H74V45c0,1.6-0.2,2.9-0.6,4.1
	c-0.4,1.2-1,2.1-1.8,2.8s-1.7,1.3-2.9,1.6C67.6,53.8,66.4,54,65,54z"/>
<path fill="#3E5BA9" d="M77.3,34.2h9.2c1.5,0,2.8,0.2,3.8,0.5c1,0.4,1.9,0.9,2.5,1.6c1.2,1.1,1.7,2.6,1.7,4.5v0.1
	c0,1.5-0.4,2.7-1.1,3.7c-0.7,1-1.7,1.7-2.9,2.2l4.6,6.8h-6.2L85,47.8h-0.1h-2.3v5.9h-5.4V34.2z M86.2,43.5c0.9,0,1.6-0.2,2.1-0.6
	c0.5-0.4,0.7-1,0.7-1.7v-0.1c0-0.8-0.3-1.4-0.8-1.7c-0.5-0.4-1.2-0.6-2.1-0.6h-3.6v4.7H86.2z"/>
<path fill="#3E5BA9" d="M107,54c-1.5,0-2.9-0.3-4.2-0.8c-1.3-0.5-2.4-1.3-3.3-2.2c-0.9-0.9-1.7-2-2.2-3.2c-0.5-1.2-0.8-2.5-0.8-3.9
	v0c0-1.4,0.3-2.7,0.8-3.9c0.5-1.2,1.3-2.3,2.2-3.2c0.9-0.9,2.1-1.6,3.3-2.2c1.3-0.5,2.7-0.8,4.2-0.8s2.9,0.3,4.2,0.8
	c1.3,0.5,2.4,1.3,3.3,2.2c0.9,0.9,1.7,2,2.2,3.2c0.5,1.2,0.8,2.5,0.8,3.9V44c0,1.4-0.3,2.7-0.8,3.9c-0.5,1.2-1.3,2.3-2.2,3.2
	c-0.9,0.9-2.1,1.6-3.3,2.2C109.9,53.8,108.5,54,107,54z M107.1,49.2c0.7,0,1.4-0.1,2-0.4c0.6-0.3,1.1-0.6,1.6-1.1
	c0.4-0.5,0.7-1,1-1.7c0.2-0.6,0.4-1.3,0.4-2V44c0-0.7-0.1-1.4-0.4-2c-0.2-0.6-0.6-1.2-1-1.7c-0.4-0.5-1-0.9-1.6-1.2
	c-0.6-0.3-1.3-0.4-2-0.4c-0.7,0-1.4,0.1-2,0.4c-0.6,0.3-1.1,0.6-1.6,1.1c-0.4,0.5-0.8,1-1,1.7c-0.2,0.6-0.3,1.3-0.3,2V44
	c0,0.7,0.1,1.4,0.4,2c0.2,0.6,0.6,1.2,1,1.7c0.4,0.5,0.9,0.9,1.6,1.2C105.6,49.1,106.3,49.2,107.1,49.2z"/>
<path fill="#3E5BA9" d="M120.3,34.2h5.4v14.7h9.4v4.7h-14.8V34.2z"/>
<path fill="#3E5BA9" d="M147.2,54c-1.5,0-2.9-0.3-4.2-0.8c-1.3-0.5-2.4-1.3-3.3-2.2c-0.9-0.9-1.7-2-2.2-3.2
	c-0.5-1.2-0.8-2.5-0.8-3.9v0c0-1.4,0.3-2.7,0.8-3.9c0.5-1.2,1.3-2.3,2.2-3.2s2.1-1.6,3.3-2.2c1.3-0.5,2.7-0.8,4.2-0.8
	s2.9,0.3,4.2,0.8c1.3,0.5,2.4,1.3,3.3,2.2c0.9,0.9,1.7,2,2.2,3.2c0.5,1.2,0.8,2.5,0.8,3.9V44c0,1.4-0.3,2.7-0.8,3.9
	c-0.5,1.2-1.3,2.3-2.2,3.2c-0.9,0.9-2.1,1.6-3.3,2.2C150.1,53.8,148.7,54,147.2,54z M147.3,49.2c0.7,0,1.4-0.1,2-0.4
	c0.6-0.3,1.1-0.6,1.6-1.1c0.4-0.5,0.7-1,1-1.7c0.3-0.6,0.4-1.3,0.4-2V44c0-0.7-0.1-1.4-0.4-2c-0.2-0.6-0.6-1.2-1-1.7
	c-0.4-0.5-1-0.9-1.6-1.2c-0.6-0.3-1.3-0.4-2-0.4s-1.4,0.1-2,0.4c-0.6,0.3-1.1,0.6-1.6,1.1c-0.4,0.5-0.8,1-1,1.7
	c-0.2,0.6-0.3,1.3-0.3,2V44c0,0.7,0.1,1.4,0.4,2c0.2,0.6,0.6,1.2,1,1.7c0.4,0.5,0.9,0.9,1.6,1.2C145.9,49.1,146.5,49.2,147.3,49.2z"
	/>
<path fill="#3E5BA9" d="M170.5,54c-1.5,0-2.9-0.2-4.2-0.7c-1.3-0.5-2.4-1.2-3.4-2.1s-1.7-2-2.2-3.2c-0.5-1.2-0.8-2.6-0.8-4.1v0
	c0-1.4,0.3-2.7,0.8-4c0.5-1.2,1.3-2.3,2.2-3.2c0.9-0.9,2-1.6,3.3-2.2c1.3-0.5,2.7-0.8,4.2-0.8c1.7,0,3.2,0.2,4.5,0.7
	c1.3,0.5,2.4,1.2,3.4,2.1l-3.2,3.8c-0.7-0.6-1.4-1-2.2-1.4c-0.7-0.3-1.6-0.5-2.5-0.5c-0.7,0-1.4,0.1-2,0.4c-0.6,0.3-1.1,0.6-1.6,1.2
	c-0.4,0.5-0.8,1-1,1.7c-0.3,0.6-0.4,1.4-0.4,2.1v0.1c0,0.8,0.1,1.5,0.4,2.2c0.3,0.7,0.6,1.3,1.1,1.7c0.5,0.5,1,0.8,1.7,1.1
	c0.6,0.3,1.4,0.4,2.1,0.4c1.3,0,2.3-0.3,3.1-0.8v-2.4h-3.8v-4h8.9v8.8c-1,0.8-2.3,1.6-3.7,2.1C173.8,53.8,172.2,54,170.5,54z"/>
<path fill="#3E5BA9" d="M187.5,46.4l-7.4-12.2h6.1l4,7.1l4-7.1h6L193,46.3v7.3h-5.4V46.4z"/>
<path fill="#3E5BA9" d="M199.7,48.5c0.4,0,0.8,0.1,1.2,0.3c0.4,0.2,0.7,0.5,0.9,0.9c0.2,0.4,0.3,0.8,0.3,1.3c0,0.4-0.1,0.8-0.3,1.2
	c-0.2,0.4-0.5,0.7-0.9,0.9c-0.4,0.2-0.8,0.3-1.2,0.3c-0.4,0-0.8-0.1-1.2-0.3c-0.4-0.2-0.7-0.5-0.9-0.9c-0.2-0.4-0.3-0.8-0.3-1.2
	c0-0.4,0.1-0.8,0.3-1.3c0.2-0.4,0.5-0.7,0.9-0.9C198.8,48.6,199.3,48.5,199.7,48.5z M199.7,48.9c-0.3,0-0.7,0.1-1,0.3
	c-0.3,0.2-0.6,0.4-0.8,0.8c-0.2,0.3-0.3,0.7-0.3,1c0,0.4,0.1,0.7,0.3,1c0.2,0.3,0.4,0.6,0.8,0.8c0.3,0.2,0.7,0.3,1,0.3
	c0.4,0,0.7-0.1,1-0.3c0.3-0.2,0.6-0.4,0.8-0.8c0.2-0.3,0.3-0.7,0.3-1c0-0.4-0.1-0.7-0.3-1c-0.2-0.3-0.4-0.6-0.8-0.8
	C200.4,49,200,48.9,199.7,48.9z M198.6,52.4v-2.7h0.9c0.3,0,0.5,0,0.7,0.1c0.1,0,0.2,0.1,0.3,0.3c0.1,0.1,0.1,0.2,0.1,0.4
	c0,0.2-0.1,0.4-0.2,0.5c-0.1,0.1-0.3,0.2-0.5,0.2c0.1,0,0.2,0.1,0.2,0.1c0.1,0.1,0.2,0.3,0.4,0.5l0.3,0.5h-0.5l-0.2-0.4
	c-0.2-0.3-0.3-0.5-0.4-0.6c-0.1-0.1-0.2-0.1-0.3-0.1h-0.2v1.2L198.6,52.4L198.6,52.4z M199,50.9h0.5c0.2,0,0.4,0,0.5-0.1
	c0.1-0.1,0.1-0.2,0.1-0.3c0-0.1,0-0.1-0.1-0.2c0-0.1-0.1-0.1-0.2-0.1c-0.1,0-0.2,0-0.4,0H199V50.9z"/>
</svg>
